<svg width="28" height="22" viewBox="0 0 28 22" fill="none" xmlns="http://www.w3.org/2000/svg">
<g clip-path="url(#clip0_42_49)">
<path d="M27.8666 7.86657V19.5999C27.8666 20.7781 26.9115 21.7332 25.7333 21.7332H2.26663C1.08839 21.7332 0.133301 20.7781 0.133301 19.5999V7.86657C0.133301 7.27755 0.610954 6.7999 1.19997 6.7999C1.34759 6.76747 1.50034 6.76747 1.64797 6.7999L14 15.3332L26.3733 6.7999C26.5141 6.77046 26.6592 6.77046 26.8 6.7999C27.389 6.7999 27.8666 7.27755 27.8666 7.86657ZM0.666634 2.36257L0.837301 2.53324L14 11.0666L27.2053 2.53324H27.3333C27.7164 2.32396 27.9289 1.89857 27.8666 1.46657C27.8666 0.877556 27.389 0.399902 26.8 0.399902H1.19997C0.610954 0.399902 0.133301 0.877556 0.133301 1.46657C0.138847 1.83884 0.341941 2.18017 0.666634 2.36257Z" fill="white"/>
</g>
<defs>
<clipPath id="clip0_42_49">
<rect width="28" height="22" fill="white"/>
</clipPath>
</defs>
</svg>
