<svg width="162" height="162" viewBox="0 0 162 162" fill="none" xmlns="http://www.w3.org/2000/svg">
<path d="M26.0469 62.0156H15.9219C8.237 62.0257 2.01013 68.2526 2 75.9375V86.0625C2.01013 93.7474 8.237 99.9743 15.9219 99.9844H26.0469C33.7318 99.9743 39.9586 93.7474 39.9688 86.0625V75.9375C39.9586 68.2526 33.7318 62.0257 26.0469 62.0156ZM32.375 86.0625C32.3699 89.5556 29.54 92.3856 26.0469 92.3906H15.9219C12.4288 92.3856 9.59881 89.5556 9.59375 86.0625V75.9375C9.59881 72.4444 12.4288 69.6144 15.9219 69.6094H26.0469C29.54 69.6144 32.3699 72.4444 32.375 75.9375V86.0625ZM147.547 77.2031H61.4844C59.3885 77.2031 57.6875 78.9041 57.6875 81C57.6875 83.0959 59.3885 84.7969 61.4844 84.7969H147.547C149.643 84.7969 151.344 83.0959 151.344 81C151.344 78.9041 149.643 77.2031 147.547 77.2031ZM26.0469 6.32812H15.9219C8.237 6.33825 2.01013 12.5651 2 20.25V30.375C2.01013 38.0599 8.237 44.2868 15.9219 44.2969H26.0469C33.7318 44.2868 39.9586 38.0599 39.9688 30.375V20.25C39.9586 12.5651 33.7318 6.33825 26.0469 6.32812ZM32.375 30.375C32.3699 33.8681 29.54 36.6981 26.0469 36.7031H15.9219C12.4288 36.6981 9.59881 33.8681 9.59375 30.375V20.25C9.59881 16.7569 12.4288 13.9269 15.9219 13.9219H26.0469C29.54 13.9269 32.3699 16.7569 32.375 20.25V30.375ZM61.4844 29.1094H147.547C149.643 29.1094 151.344 27.4084 151.344 25.3125C151.344 23.2166 149.643 21.5156 147.547 21.5156H61.4844C59.3885 21.5156 57.6875 23.2166 57.6875 25.3125C57.6875 27.4084 59.3885 29.1094 61.4844 29.1094ZM26.0469 117.703H15.9219C8.237 117.713 2.01013 123.94 2 131.625V141.75C2.01013 149.435 8.237 155.662 15.9219 155.672H26.0469C33.7318 155.662 39.9586 149.435 39.9688 141.75V131.625C39.9586 123.94 33.7318 117.713 26.0469 117.703ZM32.375 141.75C32.3699 145.243 29.54 148.073 26.0469 148.078H15.9219C12.4288 148.073 9.59881 145.243 9.59375 141.75V131.625C9.59881 128.132 12.4288 125.302 15.9219 125.297H26.0469C29.54 125.302 32.3699 128.132 32.375 131.625V141.75ZM147.547 132.891H61.4844C59.3885 132.891 57.6875 134.592 57.6875 136.688C57.6875 138.783 59.3885 140.484 61.4844 140.484H147.547C149.643 140.484 151.344 138.783 151.344 136.688C151.344 134.592 149.643 132.891 147.547 132.891Z" fill="white"/>
</svg>
