<svg width="59" height="60" viewBox="0 0 59 60" fill="none" xmlns="http://www.w3.org/2000/svg">
<path fill-rule="evenodd" clip-rule="evenodd" d="M10.9527 0.256256C5.42982 0.256256 0.952667 4.73342 0.952667 10.2563V49.7437C0.952667 55.2666 5.42982 59.7437 10.9527 59.7437H48C53.5229 59.7437 58 55.2666 58 49.7437V10.2563C58 4.73341 53.5229 0.256256 48 0.256256H10.9527ZM39.0504 27.7175C40.228 22.6147 39.0823 17.0154 35.6128 12.8788C33.4268 17.7196 30.4714 22.2558 26.7494 26.2732C23.031 30.2867 18.833 33.4742 14.3534 35.8329C18.3388 39.7247 23.7885 40.9053 28.6626 39.3751L38.0652 47.2689L38.4181 47.5431C40.0965 48.7477 42.198 48.9018 43.9748 48.0553C44.3453 48.3499 44.7559 48.592 45.1718 48.7844C46.2174 49.2682 47.7175 49.5808 49.4554 48.9555C50.5821 48.55 51.1911 47.2354 50.8154 46.0193C50.4399 44.803 49.2218 44.1458 48.0951 44.5511L47.8352 44.6227C47.5713 44.674 47.2983 44.6637 47.0428 44.5864C47.7585 42.5889 47.4981 40.2623 46.2112 38.4763L38.8979 28.3273L39.0504 27.7175ZM23.708 22.9905C27.3453 19.0644 30.171 14.5994 32.188 9.83545C26.4031 6.08467 18.7866 6.90097 13.799 12.2843C8.81021 17.669 8.05479 25.8927 11.5327 32.1372C15.9419 29.9605 20.0742 26.9125 23.708 22.9905Z" fill="url(#paint0_linear_3_18)"/>
<path d="M35.6129 12.8788L35.6895 12.8145L35.5872 12.6926L35.5217 12.8376L35.6129 12.8788ZM39.0504 27.7175L39.1474 27.7417L39.1478 27.74L39.0504 27.7175ZM26.7494 26.2732L26.676 26.2052H26.676L26.7494 26.2732ZM14.3534 35.8329L14.3068 35.7444L14.1852 35.8084L14.2835 35.9044L14.3534 35.8329ZM28.6626 39.3751L28.7269 39.2986L28.6849 39.2633L28.6326 39.2797L28.6626 39.3751ZM38.0652 47.2689L38.0008 47.3455L38.0038 47.3478L38.0652 47.2689ZM38.4181 47.5431L38.3567 47.6221L38.3598 47.6243L38.4181 47.5431ZM43.9748 48.0553L44.037 47.977L43.9881 47.9382L43.9318 47.965L43.9748 48.0553ZM45.1718 48.7844L45.1298 48.8752V48.8752L45.1718 48.7844ZM49.4554 48.9555L49.4892 49.0496L49.4892 49.0496L49.4554 48.9555ZM50.8154 46.0193L50.7198 46.0488L50.7199 46.0488L50.8154 46.0193ZM48.0951 44.5511L48.1218 44.6478L48.129 44.6452L48.0951 44.5511ZM47.8352 44.6227L47.8544 44.7212L47.8618 44.7191L47.8352 44.6227ZM47.0428 44.5864L46.9487 44.5527L46.9132 44.6517L47.0139 44.6821L47.0428 44.5864ZM46.2112 38.4763L46.2923 38.4179L46.2112 38.4763ZM38.8979 28.3273L38.8009 28.303L38.7896 28.3481L38.8167 28.3858L38.8979 28.3273ZM32.188 9.83545L32.2801 9.87444L32.3128 9.79718L32.2424 9.75154L32.188 9.83545ZM23.708 22.9905L23.7813 23.0584H23.7813L23.708 22.9905ZM13.799 12.2843L13.7256 12.2164L13.799 12.2843ZM11.5327 32.1372L11.4453 32.1859L11.4916 32.269L11.577 32.2269L11.5327 32.1372ZM1.05267 10.2563C1.05267 4.78864 5.48505 0.356256 10.9527 0.356256V0.156256C5.37459 0.156256 0.852667 4.67819 0.852667 10.2563H1.05267ZM1.05267 49.7437V10.2563H0.852667V49.7437H1.05267ZM10.9527 59.6437C5.48505 59.6437 1.05267 55.2113 1.05267 49.7437H0.852667C0.852667 55.3218 5.37459 59.8437 10.9527 59.8437V59.6437ZM48 59.6437H10.9527V59.8437H48V59.6437ZM57.9 49.7437C57.9 55.2113 53.4676 59.6437 48 59.6437V59.8437C53.5781 59.8437 58.1 55.3218 58.1 49.7437H57.9ZM57.9 10.2563V49.7437H58.1V10.2563H57.9ZM48 0.356256C53.4676 0.356256 57.9 4.78864 57.9 10.2563H58.1C58.1 4.67818 53.5781 0.156256 48 0.156256V0.356256ZM10.9527 0.356256H48V0.156256H10.9527V0.356256ZM35.5362 12.943C38.9841 17.0539 40.1241 22.6206 38.9529 27.695L39.1478 27.74C40.332 22.6088 39.1805 16.9769 35.6895 12.8145L35.5362 12.943ZM26.8227 26.3412C30.5524 22.3156 33.5136 17.7702 35.704 12.9199L35.5217 12.8376C33.3399 17.669 30.3905 22.1961 26.676 26.2052L26.8227 26.3412ZM14.4 35.9214C18.8897 33.5574 23.0967 30.3629 26.8227 26.3412L26.676 26.2052C22.9652 30.2105 18.7763 33.3911 14.3068 35.7444L14.4 35.9214ZM28.6326 39.2797C23.7937 40.7989 18.3823 39.6275 14.4232 35.7613L14.2835 35.9044C18.2953 39.822 23.7834 41.0118 28.6925 39.4706L28.6326 39.2797ZM38.1295 47.1923L28.7269 39.2986L28.5983 39.4517L38.0009 47.3454L38.1295 47.1923ZM38.4794 47.4641L38.1265 47.1899L38.0038 47.3478L38.3567 47.6221L38.4794 47.4641ZM43.9318 47.965C42.1876 48.796 40.125 48.645 38.4764 47.4618L38.3598 47.6243C40.0681 48.8504 42.2084 49.0076 44.0178 48.1456L43.9318 47.965ZM45.2138 48.6937C44.8039 48.504 44.4004 48.2659 44.037 47.977L43.9126 48.1336C44.2902 48.4338 44.7078 48.6799 45.1298 48.8752L45.2138 48.6937ZM49.4215 48.8614C47.7134 49.476 46.241 49.1689 45.2138 48.6937L45.1298 48.8752C46.1939 49.3675 47.7215 49.6857 49.4892 49.0496L49.4215 48.8614ZM50.7199 46.0488C51.0814 47.2191 50.4929 48.4758 49.4215 48.8614L49.4892 49.0496C50.6712 48.6242 51.3008 47.2518 50.9109 45.9898L50.7199 46.0488ZM48.129 44.6452C49.1963 44.2613 50.3593 44.881 50.7198 46.0488L50.9109 45.9898C50.5205 44.7249 49.2473 44.0304 48.0613 44.457L48.129 44.6452ZM47.8618 44.7191L48.1217 44.6475L48.0685 44.4547L47.8087 44.5263L47.8618 44.7191ZM47.0139 44.6821C47.2859 44.7644 47.5754 44.7751 47.8543 44.7209L47.8162 44.5246C47.5673 44.5729 47.3108 44.563 47.0718 44.4907L47.0139 44.6821ZM46.1301 38.5348C47.3967 40.2927 47.6539 42.5846 46.9487 44.5527L47.137 44.6201C47.8632 42.5933 47.5995 40.232 46.2923 38.4179L46.1301 38.5348ZM38.8167 28.3858L46.1301 38.5348L46.2923 38.4179L38.979 28.2688L38.8167 28.3858ZM38.9533 27.6932L38.8009 28.303L38.9949 28.3515L39.1474 27.7417L38.9533 27.6932ZM32.0959 9.79646C30.0832 14.5502 27.2638 19.0053 23.6346 22.9225L23.7813 23.0584C27.4269 19.1235 30.2587 14.6486 32.2801 9.87444L32.0959 9.79646ZM13.8723 12.3523C18.827 7.00451 26.3896 6.1951 32.1336 9.91936L32.2424 9.75154C26.4166 5.97424 18.7462 6.79743 13.7256 12.2164L13.8723 12.3523ZM11.6201 32.0885C8.16222 25.8801 8.91435 17.7038 13.8723 12.3523L13.7256 12.2164C8.70607 17.6343 7.94737 25.9054 11.4453 32.1859L11.6201 32.0885ZM23.6346 22.9225C20.0091 26.8357 15.8866 29.8763 11.4884 32.0475L11.577 32.2269C15.9973 30.0447 20.1394 26.9893 23.7813 23.0584L23.6346 22.9225Z" fill="white"/>
<defs>
<linearGradient id="paint0_linear_3_18" x1="17.5" y1="18" x2="43" y2="55.5" gradientUnits="userSpaceOnUse">
<stop stop-color="#3AFFDC"/>
<stop offset="1" stop-color="#FB21FF"/>
</linearGradient>
</defs>
</svg>
