<svg width="53" height="55" viewBox="0 0 53 55" fill="none" xmlns="http://www.w3.org/2000/svg">
<path d="M32.1643 12.3493L32.5474 12.028L32.0361 11.4184L31.7086 12.1435L32.1643 12.3493ZM35.2551 25.6913L35.7402 25.8126L35.7423 25.8038L35.2551 25.6913ZM24.1948 24.3927L23.8281 24.0529V24.0529L24.1948 24.3927ZM13.0491 32.9882L12.8161 32.5458L12.2082 32.8659L12.6998 33.3459L13.0491 32.9882ZM25.915 36.1732L26.2365 35.7903L26.0267 35.6141L25.7653 35.6962L25.915 36.1732ZM34.3693 43.2707L34.0478 43.6537L34.055 43.6598L34.0625 43.6656L34.3693 43.2707ZM34.6866 43.5173L34.3798 43.9121L34.3873 43.918L34.3951 43.9235L34.6866 43.5173ZM39.6828 43.9779L39.994 43.5865L39.7496 43.3922L39.4678 43.5265L39.6828 43.9779ZM40.7591 44.6334L40.5492 45.0872L40.5492 45.0872L40.7591 44.6334ZM44.6106 44.7873L44.7799 45.2577L44.78 45.2577L44.6106 44.7873ZM45.8335 42.1472L45.3557 42.2947L45.3558 42.2948L45.8335 42.1472ZM43.3876 40.8271L43.5204 41.3091L43.5388 41.3041L43.5568 41.2976L43.3876 40.8271ZM43.1539 40.8915L43.2493 41.3823L43.2682 41.3786L43.2868 41.3735L43.1539 40.8915ZM42.4414 40.8588L41.9707 40.6902L41.7934 41.1851L42.2966 41.3374L42.4414 40.8588ZM41.6937 35.3651L42.0993 35.0728L42.0993 35.0727L41.6937 35.3651ZM35.118 26.2396L34.6329 26.1184L34.5766 26.3436L34.7123 26.532L35.118 26.2396ZM29.0849 9.61292L29.5453 9.80787L29.7089 9.42159L29.3569 9.19339L29.0849 9.61292ZM21.4602 21.4411L21.827 21.7809L21.827 21.7809L21.4602 21.4411ZM12.5506 11.8148L12.1838 11.475L12.1838 11.475L12.5506 11.8148ZM10.5129 29.6653L10.0761 29.9086L10.3076 30.3242L10.7342 30.1136L10.5129 29.6653ZM1.5 11C1.5 5.7533 5.7533 1.5 11 1.5V0.5C5.20101 0.5 0.5 5.20102 0.5 11H1.5ZM1.5 44.4875V11H0.5V44.4875H1.5ZM11 53.9875C5.7533 53.9875 1.5 49.7342 1.5 44.4875H0.5C0.5 50.2865 5.20101 54.9875 11 54.9875V53.9875ZM42.2935 53.9875H11V54.9875H42.2935V53.9875ZM51.7935 44.4875C51.7935 49.7342 47.5402 53.9875 42.2935 53.9875V54.9875C48.0924 54.9875 52.7935 50.2865 52.7935 44.4875H51.7935ZM51.7935 11V44.4875H52.7935V11H51.7935ZM42.2935 1.5C47.5402 1.5 51.7935 5.75329 51.7935 11H52.7935C52.7935 5.20101 48.0924 0.5 42.2935 0.5V1.5ZM11 1.5H42.2935V0.5H11V1.5ZM31.7812 12.6706C34.7929 16.2614 35.7941 21.1327 34.7679 25.5789L35.7423 25.8038C36.834 21.0738 35.7748 15.876 32.5474 12.028L31.7812 12.6706ZM24.5616 24.7325C27.9462 21.0794 30.633 16.955 32.62 12.5551L31.7086 12.1435C29.7644 16.4487 27.1367 20.4818 23.8281 24.0529L24.5616 24.7325ZM13.282 33.4306C17.3605 31.2832 21.1802 28.3823 24.5616 24.7325L23.8281 24.0529C20.5227 27.6205 16.7933 30.4517 12.8161 32.5458L13.282 33.4306ZM25.7653 35.6962C21.5585 37.0169 16.8502 36.0012 13.3984 32.6305L12.6998 33.3459C16.415 36.9739 21.5068 38.0812 26.0648 36.6502L25.7653 35.6962ZM34.6908 42.8878L26.2365 35.7903L25.5935 36.5561L34.0478 43.6537L34.6908 42.8878ZM34.9934 43.1225L34.6761 42.8759L34.0625 43.6656L34.3798 43.9121L34.9934 43.1225ZM39.4678 43.5265C38.0332 44.2099 36.3379 44.087 34.9781 43.1111L34.3951 43.9235C36.0536 45.1138 38.1373 45.268 39.8979 44.4293L39.4678 43.5265ZM40.9691 44.1796C40.6255 44.0207 40.2915 43.8229 39.994 43.5865L39.3717 44.3693C39.7406 44.6625 40.1448 44.9001 40.5492 45.0872L40.9691 44.1796ZM44.4414 44.3168C43.0279 44.8254 41.817 44.5719 40.9691 44.1796L40.5492 45.0872C41.5816 45.5649 43.0682 45.8737 44.7799 45.2577L44.4414 44.3168ZM45.3558 42.2948C45.6227 43.1589 45.1781 44.0516 44.4413 44.3168L44.78 45.2577C46.0693 44.7937 46.7199 43.3225 46.3112 41.9996L45.3558 42.2948ZM43.5568 41.2976C44.2731 41.0399 45.093 41.4437 45.3557 42.2947L46.3113 41.9997C45.8987 40.6634 44.5282 39.8855 43.2183 40.3566L43.5568 41.2976ZM43.2868 41.3735L43.5204 41.3091L43.2548 40.3451L43.0211 40.4095L43.2868 41.3735ZM42.2966 41.3374C42.6089 41.4319 42.9371 41.443 43.2493 41.3823L43.0585 40.4007C42.8962 40.4322 42.7334 40.4248 42.5862 40.3803L42.2966 41.3374ZM41.288 35.6574C42.3439 37.1227 42.5617 39.041 41.9707 40.6902L42.9121 41.0275C43.6083 39.0847 43.3577 36.8191 42.0993 35.0728L41.288 35.6574ZM34.7123 26.532L41.288 35.6574L42.0993 35.0727L35.5237 25.9473L34.7123 26.532ZM34.77 25.5701L34.6329 26.1184L35.6031 26.3609L35.7402 25.8126L34.77 25.5701ZM28.6245 9.41798C26.8326 13.6502 24.323 17.6154 21.0934 21.1013L21.827 21.7809C25.1384 18.2067 27.7101 14.1425 29.5453 9.80787L28.6245 9.41798ZM12.9174 12.1546C17.2371 7.4921 23.816 6.79261 28.8129 10.0325L29.3569 9.19339C23.9509 5.6883 16.8332 6.45674 12.1838 11.475L12.9174 12.1546ZM10.9497 29.422C7.92293 23.9875 8.58571 16.8301 12.9174 12.1546L12.1838 11.475C7.54434 16.4827 6.84868 24.1138 10.0761 29.9086L10.9497 29.422ZM21.0934 21.1013C17.8671 24.5835 14.2008 27.2871 10.2916 29.2169L10.7342 30.1136C14.7541 28.1292 18.5187 25.3516 21.827 21.7809L21.0934 21.1013Z" fill="white"/>
</svg>
