<svg width="22" height="36" viewBox="0 0 22 36" fill="none" xmlns="http://www.w3.org/2000/svg">
<g clip-path="url(#clip0_42_24)">
<path d="M17.9818 0H4.01713C1.81543 0 0.03125 1.78418 0.03125 3.98587V32.0142C0.03125 34.2158 1.81543 36 4.01713 36H17.9818C20.1834 36 21.9688 34.2158 21.9688 32.0142V3.98587C21.9688 1.78418 20.1834 0 17.9818 0ZM11 34.0301C10.4309 34.0301 9.96838 33.5687 9.96838 32.9985C9.96838 32.4294 10.4309 31.968 11 31.968C11.5691 31.968 12.0316 32.4295 12.0316 32.9985C12.0316 33.5687 11.5691 34.0301 11 34.0301ZM18.5938 29.8125H3.40625V4.5H18.5938V29.8125Z" fill="white"/>
</g>
<defs>
<clipPath id="clip0_42_24">
<rect width="22" height="36" fill="white"/>
</clipPath>
</defs>
</svg>
