<svg width="52" height="52" viewBox="0 0 52 52" fill="none" xmlns="http://www.w3.org/2000/svg">
<g clip-path="url(#clip0_42_43)">
<path d="M44.132 43.1035C39.3648 38.7043 33.1371 36.2268 26.6508 36.1489C20.1644 36.071 13.8791 38.3983 9.0076 42.6816L6.80322 40.1805C12.2927 35.3521 19.3758 32.7278 26.6861 32.814C33.9963 32.9002 41.0157 35.6908 46.3897 40.6474L44.132 43.1035Z" fill="black"/>
<path d="M26.334 14.6021C27.9698 14.6021 29.5688 15.0871 30.9288 15.9959C32.2889 16.9047 33.349 18.1963 33.975 19.7076C34.6009 21.2188 34.7647 22.8817 34.4455 24.486C34.1264 26.0903 33.3388 27.564 32.1821 28.7206C31.0255 29.8773 29.5518 30.6649 27.9475 30.9841C26.3432 31.3032 24.6804 31.1394 23.1691 30.5134C21.6579 29.8874 20.3662 28.8274 19.4574 27.4673C18.5486 26.1073 18.0636 24.5083 18.0636 22.8725C18.0663 20.6799 18.9384 18.5778 20.4889 17.0274C22.0393 15.4769 24.1414 14.6047 26.334 14.6021ZM26.334 11.2672C24.0387 11.2672 21.795 11.9478 19.8865 13.223C17.978 14.4983 16.4905 16.3108 15.6122 18.4313C14.7338 20.5519 14.504 22.8854 14.9518 25.1366C15.3996 27.3878 16.5048 29.4557 18.1279 31.0787C19.7509 32.7017 21.8188 33.807 24.07 34.2548C26.3212 34.7026 28.6547 34.4728 30.7752 33.5944C32.8958 32.7161 34.7083 31.2286 35.9835 29.3201C37.2587 27.4116 37.9394 25.1678 37.9394 22.8725C37.9394 19.7946 36.7166 16.8427 34.5402 14.6663C32.3638 12.4899 29.4119 11.2672 26.334 11.2672Z" fill="black"/>
<path d="M26.4973 3.34374C30.8812 3.34374 35.1666 4.64371 38.8116 7.07925C42.4567 9.51479 45.2976 12.9765 46.9753 17.0267C48.6529 21.0768 49.0918 25.5335 48.2365 29.8331C47.3813 34.1327 45.2702 38.0822 42.1704 41.182C39.0705 44.2819 35.1211 46.3929 30.8215 47.2481C26.5219 48.1034 22.0652 47.6645 18.0151 45.9868C13.9649 44.3092 10.5032 41.4682 8.06767 37.8232C5.63214 34.1782 4.33214 29.8927 4.33214 25.5089C4.33876 19.6324 6.67615 13.9984 10.8315 9.84309C14.9868 5.68776 20.6208 3.35036 26.4973 3.34374ZM26.4973 0.00888062C21.4539 0.00888062 16.5237 1.50445 12.3303 4.30643C8.13683 7.1084 4.86841 11.0909 2.93837 15.7505C1.00834 20.41 0.503387 25.5372 1.48731 30.4837C2.47123 35.4302 4.89987 39.9739 8.46611 43.5401C12.0323 47.1064 16.576 49.535 21.5225 50.5189C26.469 51.5028 31.5962 50.9978 36.2557 49.0678C40.9152 47.1378 44.8978 43.8694 47.6998 39.6759C50.5017 35.4825 51.9973 30.5523 51.9973 25.5089C51.9973 18.7459 49.3107 12.2598 44.5286 7.47766C39.7464 2.69548 33.2604 0.00888062 26.4973 0.00888062Z" fill="black"/>
</g>
<defs>
<clipPath id="clip0_42_43">
<rect width="51" height="51" fill="white" transform="translate(0.997314 0.00375366)"/>
</clipPath>
</defs>
</svg>
