<svg width="51" height="51" viewBox="0 0 51 51" fill="none" xmlns="http://www.w3.org/2000/svg">
<g clip-path="url(#clip0_3_29)">
<path d="M43.1348 43.0997C38.3676 38.7006 32.1399 36.2231 25.6536 36.1452C19.1672 36.0673 12.8819 38.3945 8.01041 42.6779L5.80603 40.1767C11.2955 35.3483 18.3786 32.7241 25.6889 32.8103C32.9991 32.8965 40.0185 35.6871 45.3925 40.6436L43.1348 43.0997Z" fill="white"/>
<path d="M25.3366 14.5983C26.9723 14.5983 28.5713 15.0834 29.9314 15.9921C31.2915 16.9009 32.3515 18.1926 32.9775 19.7038C33.6035 21.215 33.7672 22.8779 33.4481 24.4823C33.129 26.0866 32.3413 27.5602 31.1847 28.7169C30.0281 29.8735 28.5544 30.6612 26.9501 30.9803C25.3458 31.2994 23.6829 31.1356 22.1717 30.5097C20.6605 29.8837 19.3687 28.8237 18.46 27.4636C17.5512 26.1035 17.0662 24.5045 17.0662 22.8688C17.0688 20.6761 17.941 18.574 19.4914 17.0236C21.0419 15.4732 23.1439 14.6009 25.3366 14.5983ZM25.3366 11.2634C23.0413 11.2634 20.7975 11.9441 18.889 13.2193C16.9806 14.4945 15.4931 16.307 14.6147 18.4276C13.7363 20.5482 13.5065 22.8816 13.9543 25.1329C14.4021 27.3841 15.5074 29.4519 17.1304 31.075C18.7535 32.698 20.8214 33.8033 23.0726 34.2511C25.3238 34.6989 27.6572 34.4691 29.7778 33.5907C31.8984 32.7123 33.7109 31.2248 34.9861 29.3163C36.2613 27.4079 36.9419 25.1641 36.9419 22.8688C36.9419 19.7908 35.7192 16.839 33.5428 14.6626C31.3663 12.4862 28.4145 11.2634 25.3366 11.2634Z" fill="white"/>
<path d="M25.5 3.33999C29.8839 3.33999 34.1693 4.63996 37.8143 7.0755C41.4593 9.51103 44.3003 12.9728 45.9779 17.0229C47.6556 21.0731 48.0944 25.5297 47.2392 29.8293C46.3839 34.129 44.2729 38.0784 41.1731 41.1783C38.0732 44.2781 34.1238 46.3891 29.8242 47.2444C25.5246 48.0996 21.0679 47.6607 17.0177 45.9831C12.9676 44.3054 9.5059 41.4645 7.07036 37.8194C4.63482 34.1744 3.33482 29.889 3.33482 25.5051C3.34144 19.6286 5.67884 13.9947 9.83418 9.83934C13.9895 5.684 19.6235 3.34661 25.5 3.33999ZM25.5 0.00512695C20.4566 0.00512695 15.5264 1.5007 11.333 4.30267C7.13952 7.10465 3.87109 11.0872 1.94106 15.7467C0.0110236 20.4062 -0.493928 25.5334 0.489996 30.4799C1.47392 35.4265 3.90256 39.9701 7.4688 43.5364C11.035 47.1026 15.5787 49.5312 20.5252 50.5152C25.4717 51.4991 30.5989 50.9941 35.2584 49.0641C39.9179 47.134 43.9005 43.8656 46.7024 39.6722C49.5044 35.4787 51 30.5486 51 25.5051C51 18.7421 48.3134 12.2561 43.5312 7.47391C38.7491 2.69173 32.263 0.00512695 25.5 0.00512695Z" fill="white"/>
</g>
<defs>
<clipPath id="clip0_3_29">
<rect width="51" height="51" fill="white"/>
</clipPath>
</defs>
</svg>
