<svg width="170" height="170" viewBox="0 0 170 170" fill="none" xmlns="http://www.w3.org/2000/svg">
<g clip-path="url(#clip0_30_16)">
<path d="M161.554 38.3277C160.523 36.0964 158.79 34.3297 156.695 33.1659C154.599 32.0018 152.151 31.4121 149.568 31.4121C145.04 31.4121 140.077 33.2257 135.685 37.1065C132.026 40.3345 128.795 45.0058 126.46 51.2191V5.4307C126.459 2.43512 124.022 0 121.029 0H44.8143C41.8157 0 39.3836 2.43512 39.3836 5.4307V49.9252L27.8827 45.5932C26.1319 44.9354 24.326 44.6223 22.5489 44.6223C19.4796 44.6223 16.5126 45.5514 14.023 47.2477C11.5308 48.9387 9.5137 51.4021 8.37317 54.4296C7.71276 56.178 7.39966 57.9889 7.39966 59.761C7.39966 62.8273 8.33399 65.7943 10.025 68.2869C11.7161 70.7738 14.1821 72.7935 17.2095 73.9337L27.4105 77.7753C26.7843 78.0781 26.179 78.4278 25.5996 78.8219C23.2455 80.4269 21.3224 82.7624 20.2469 85.6305C19.6181 87.2824 19.3232 88.997 19.3232 90.6801C19.3232 93.59 20.1998 96.3953 21.8101 98.762C23.4178 101.119 25.7507 103.027 28.6211 104.117L29.3778 104.399C29.0986 104.563 28.822 104.738 28.5557 104.918C26.1863 106.518 24.2735 108.851 23.198 111.73C22.5692 113.381 22.2743 115.093 22.2743 116.779C22.2743 119.692 23.1535 122.492 24.7666 124.848C26.3583 127.218 28.6942 129.128 31.5596 130.203L32.314 130.49C32.0218 130.655 31.7422 130.832 31.4659 131.023C29.1069 132.617 27.1861 134.953 26.1083 137.818C25.4791 139.481 25.1872 141.195 25.1872 142.881C25.1872 145.778 26.0668 148.596 27.6742 150.95C29.2818 153.309 31.6174 155.23 34.4854 156.305L44.282 159.995C45.9339 160.616 47.6508 160.919 49.3342 160.919C51.6857 160.919 53.9637 160.329 55.9991 159.264C59.1022 161.383 62.6825 163.388 66.816 165.074C73.5828 167.834 81.772 169.753 91.5344 169.98C92.1526 169.996 92.7609 170.001 93.3662 170.001C102.873 170.006 110.814 168.19 117.409 164.891C122.354 162.417 126.522 159.119 130.008 155.223C135.248 149.38 138.97 142.234 141.78 134.419C144.581 126.623 146.481 118.142 148.018 109.52C148.057 109.337 148.255 108.45 148.576 107.002C149.842 101.305 153.015 87.0221 155.969 73.8175C157.446 67.2177 158.868 60.8866 159.972 56.0382C160.52 53.6164 160.99 51.5628 161.347 50.0361C161.525 49.2738 161.674 48.6426 161.791 48.1621C161.9 47.6923 161.989 47.3533 162.013 47.2723C162.407 45.8917 162.6 44.5427 162.6 43.2404C162.603 41.4803 162.24 39.8102 161.554 38.3277ZM19.1197 68.8503C17.165 68.1145 15.6098 66.8303 14.5187 65.2335C13.4303 63.6311 12.83 61.7206 12.83 59.761C12.83 58.6258 13.0286 57.4776 13.4566 56.3397C14.195 54.3881 15.474 52.8275 17.076 51.7364C18.6731 50.6507 20.5886 50.0481 22.5486 50.0481C23.6785 50.0481 24.8316 50.2489 25.9645 50.6743L39.3832 55.7241V76.4814L19.1197 68.8503ZM26.3068 95.7087C25.3074 94.2315 24.7543 92.483 24.7543 90.6797C24.7543 89.6385 24.9395 88.5846 25.328 87.5404C26.0014 85.7501 27.1861 84.315 28.6526 83.313C30.1196 82.3162 31.8783 81.7627 33.6713 81.7627C34.7126 81.7627 35.7668 81.9506 36.808 82.3371H36.8183L39.3836 83.3076L46.6172 86.0323C47.9533 86.5307 49.0809 87.3136 49.9943 88.2921C50.2968 88.6155 50.5813 88.9754 50.8423 89.3566C51.8394 90.8208 52.3849 92.5819 52.3849 94.3722C52.3849 95.4161 52.1996 96.4704 51.8082 97.5246C51.3855 98.6545 50.7643 99.628 49.9946 100.453C49.5378 100.946 49.0394 101.366 48.4835 101.747C47.017 102.747 45.2711 103.292 43.4679 103.292C42.424 103.292 41.3698 103.107 40.3285 102.713L39.3839 102.353L30.5319 99.033C28.739 98.3496 27.3036 97.1753 26.3068 95.7087ZM29.2476 121.8C28.2532 120.33 27.708 118.572 27.708 116.779C27.708 115.735 27.8906 114.681 28.2848 113.642C28.9555 111.839 30.1272 110.417 31.6071 109.404C33.0713 108.407 34.8324 107.859 36.6254 107.859C37.5388 107.859 38.4625 107.994 39.3839 108.308C39.5144 108.339 39.6343 108.396 39.7647 108.438L49.5617 112.128C49.7131 112.183 49.8538 112.238 49.995 112.306C51.592 113 52.8733 114.096 53.7841 115.442C54.7862 116.919 55.337 118.67 55.337 120.474C55.337 121.517 55.1544 122.567 54.7653 123.611C54.7653 123.621 54.7523 123.632 54.7523 123.642C54.0789 125.427 52.8943 126.849 51.4406 127.838C49.974 128.837 48.2126 129.388 46.4196 129.388C45.3784 129.388 44.3268 129.205 43.2826 128.816L39.3839 127.347L33.486 125.119C31.6824 124.446 30.2577 123.272 29.2476 121.8ZM57.792 149.342C57.7582 149.462 57.7163 149.592 57.6748 149.713C56.9988 151.503 55.8244 152.935 54.3525 153.935C52.8833 154.934 51.1375 155.493 49.3342 155.493C48.2903 155.493 47.2358 155.307 46.1949 154.913L36.3956 151.221C34.5924 150.548 33.1703 149.363 32.1705 147.896C31.1711 146.432 30.6179 144.676 30.6179 142.88C30.6179 141.836 30.8006 140.772 31.1947 139.741C31.868 137.94 33.0501 136.502 34.517 135.506C35.9391 134.535 37.646 133.995 39.3839 133.963H39.5353C40.5766 133.963 41.6308 134.138 42.6747 134.535L43.1003 134.692L52.4689 138.222C54.2722 138.904 55.6973 140.081 56.707 141.547C57.7064 143.021 58.2519 144.77 58.2519 146.576C58.2512 147.486 58.1105 148.418 57.792 149.342ZM51.4845 107.048L50.7042 106.753C50.9861 106.591 51.26 106.416 51.5366 106.236C53.9036 104.639 55.8138 102.301 56.8916 99.4354C57.5208 97.7729 57.8153 96.0533 57.8153 94.3726C57.8153 91.4653 56.9357 88.6626 55.3257 86.3036C54.0129 84.3622 52.1993 82.7179 49.9943 81.6013V16.2921H116.063V123.1H60.5034C60.6651 122.222 60.767 121.346 60.767 120.474C60.767 117.562 59.8905 114.759 58.2828 112.39C56.6751 110.035 54.3393 108.12 51.4845 107.048ZM86.7253 134.248C86.7253 136.346 85.0213 138.053 82.9228 138.053C80.8221 138.053 79.1207 136.346 79.1207 134.248C79.1207 132.152 80.8221 130.448 82.9228 130.448C85.0209 130.448 86.7253 132.152 86.7253 134.248ZM156.791 45.7838C156.705 46.076 156.606 46.4854 156.454 47.1119C155.904 49.4162 154.771 54.3774 153.38 60.5515C149.21 79.0593 142.709 108.381 142.709 108.381L142.696 108.438L142.686 108.496C141.344 116.043 139.729 123.379 137.524 130.091C135.872 135.13 133.889 139.811 131.456 143.979C127.803 150.237 123.184 155.323 117.077 158.898C110.963 162.466 103.298 164.566 93.3659 164.571C92.8074 164.571 92.2386 164.561 91.6592 164.55C82.5357 164.334 75.0278 162.562 68.8689 160.049C65.7037 158.752 62.8984 157.259 60.4111 155.678C61.3846 154.49 62.1908 153.136 62.7546 151.622C63.0388 150.876 63.2556 150.103 63.3964 149.341C63.5086 148.809 63.579 148.274 63.6209 147.744L121.028 148.256C124.021 148.256 126.458 145.824 126.458 142.828V70.3664C127.445 66.898 128.716 62.4252 130.362 56.6422C132.479 49.2206 135.783 44.2647 139.279 41.1725C142.779 38.0827 146.495 36.8405 149.567 36.8405C151.91 36.8405 153.849 37.5607 155.136 38.6621C155.777 39.2152 156.273 39.8547 156.62 40.6064C156.965 41.3552 157.166 42.2164 157.169 43.2394C157.17 43.9988 157.057 44.8441 156.791 45.7838Z" fill="white"/>
<path d="M82.9228 98.0209C95.1725 98.0209 105.102 88.0911 105.102 75.8389C105.102 63.5869 95.1725 53.6569 82.9228 53.6569C70.6682 53.6569 60.7408 63.5866 60.7385 75.8389C60.7408 88.0911 70.6679 98.0209 82.9228 98.0209ZM95.9112 88.8243C93.9931 90.7398 91.6652 92.2269 89.0661 93.1486C90.3135 91.6429 91.3468 89.7141 92.1583 87.4829H97.1271C96.7433 87.9477 96.3366 88.3989 95.9112 88.8243ZM98.531 85.5153H92.7951C93.5309 82.8952 93.9718 79.9517 94.0529 76.8227H101.261C101.096 80.0035 100.112 82.9682 98.531 85.5153ZM101.261 74.8574H94.0449C93.9692 71.7283 93.5389 68.7822 92.8001 66.1648H98.531C100.112 68.7118 101.096 71.6735 101.261 74.8574ZM95.9112 62.8558C96.3366 63.2814 96.7436 63.7304 97.1271 64.1945H92.1583C91.8087 63.229 91.4172 62.3156 90.9816 61.4725C90.4178 60.3739 89.7733 59.3824 89.0711 58.5317C91.6679 59.4555 93.9954 60.943 95.9112 62.8558ZM83.9066 57.5008C84.2144 57.519 84.5172 57.54 84.8227 57.5712C85.3002 57.7903 85.783 58.0825 86.2554 58.4687C87.7011 59.6457 89.0425 61.6392 90.0602 64.1942H83.907L83.9066 57.5008ZM83.9066 66.1648H90.7412C91.5268 68.7198 92.0016 71.6842 92.0879 74.8574H83.9066V66.1648ZM83.9066 76.8227H92.0799C91.9913 79.9986 91.5135 82.9606 90.7385 85.5153H83.9066V76.8227ZM83.9066 87.4829H90.0469C89.7965 88.1224 89.5276 88.7433 89.2354 89.3017C88.3642 90.9901 87.3355 92.3262 86.2554 93.2084C85.783 93.5972 85.3005 93.8924 84.8227 94.1115C84.5172 94.1378 84.2144 94.1637 83.9066 94.1793V87.4829ZM69.9374 88.8243C69.5094 88.3986 69.0971 87.9474 68.7212 87.4829H73.6821C74.037 88.4511 74.4235 89.3622 74.8591 90.2049C75.4279 91.3115 76.0647 92.295 76.772 93.1486C74.1751 92.2273 71.8476 90.7398 69.9374 88.8243ZM81.939 94.1793C81.6309 94.1637 81.3258 94.1374 81.0176 94.1115C80.5402 93.8924 80.0574 93.5975 79.5823 93.2084C78.1393 92.029 76.8032 90.0352 75.7802 87.4829H81.939V94.1793ZM81.939 85.5153H75.0992C74.3189 82.9606 73.8388 79.9932 73.7578 76.8227H81.939V85.5153ZM81.939 74.8574H73.7604C73.8414 71.6842 74.3269 68.7198 75.1072 66.1648H81.9394L81.939 74.8574ZM79.5823 58.469C80.0574 58.0828 80.5402 57.7906 81.0176 57.5715C81.3258 57.5403 81.6309 57.5194 81.939 57.5011V64.1949H75.7931C76.0435 63.558 76.3151 62.9424 76.6073 62.3787C77.4792 60.6873 78.5048 59.3512 79.5823 58.469ZM69.9374 62.8558C71.8476 60.943 74.1805 59.4505 76.7746 58.5317C75.5351 60.0348 74.4939 61.9686 73.6821 64.1945H68.7212C69.0971 63.73 69.5094 63.2811 69.9374 62.8558ZM67.3094 66.1648H73.0452C72.3095 68.7822 71.8685 71.7283 71.7875 74.8574H64.5798C64.7468 71.6735 65.7279 68.7118 67.3094 66.1648ZM71.7955 76.8227C71.8762 79.9517 72.3015 82.8952 73.0452 85.5153H67.3094C65.7279 82.9682 64.7468 80.0035 64.5798 76.8227H71.7955Z" fill="white"/>
</g>
<defs>
<clipPath id="clip0_30_16">
<rect width="170" height="170" fill="white"/>
</clipPath>
</defs>
</svg>
