<svg width="162" height="162" viewBox="0 0 162 162" fill="none" xmlns="http://www.w3.org/2000/svg">
<g clip-path="url(#clip0_31_51)">
<path d="M54.5762 16.195C54.5762 7.40628 61.7012 0.28125 70.49 0.28125C79.2787 0.28125 86.4037 7.40628 86.4037 16.195C86.4037 24.9837 79.2787 32.1088 70.49 32.1088C61.7012 32.1088 54.5762 24.9837 54.5762 16.195ZM131.301 73.3388L138.775 34.4855L131.672 33.119L124.77 68.9985H106.457C106.529 68.5744 106.576 68.1427 106.579 67.6987C106.599 63.304 103.054 59.7255 98.6589 59.705L67.2657 59.5608L58.682 36.5528C57.0939 30.6251 53.147 26.486 46.25 26.486C38.9001 26.486 33.9699 33.1677 31.4291 40.0647C26.3656 53.808 22.7493 76.9551 24.2157 91.9874C25.0094 99.0093 26.8935 104.767 31.645 107.335H18.4091V59.113H8.28271V161.587H18.4097V117.463H66.1587L59.5 150.453C58.4725 155.544 61.7666 160.503 66.857 161.531C67.4848 161.657 68.1107 161.719 68.7276 161.719C73.1114 161.719 77.0346 158.637 77.9353 154.174L83.7983 125.127L91.9086 146.878C93.3193 150.662 96.9068 152.999 100.721 152.999C101.813 152.999 102.922 152.808 104.005 152.403C108.871 150.589 111.345 145.173 109.53 140.307L93.0444 96.0944C91.6729 92.4153 88.1597 89.9764 84.2339 89.9764H59.6019L59.5904 84.1897H135.59V161.587H145.717V73.3388H131.301Z" fill="white"/>
</g>
<defs>
<clipPath id="clip0_31_51">
<rect width="162" height="162" fill="white"/>
</clipPath>
</defs>
</svg>
